
<svg id="レイヤー_1" data-name="レイヤー 1" xmlns="http://www.w3.org/2000/svg" viewBox="0 0 1061.77 395.52"><defs><style>.cls-1{fill:none;stroke:#231815;stroke-miterlimit:10;}</style></defs><path class="cls-1" d="M-500-76.61c16.09-16.82,32.36-33.38,47.76-50.55H-567.7V-2.76C-545.5-27.75-523.06-52.52-500-76.61Z" transform="translate(568.2 127.66)"/><path class="cls-1" d="M493.07,47.68V-127.16H-374.65c-22,29.4-47.69,56.08-73.29,82.61C-489.17-1.8-528.34,43.13-567.7,87.62V267.36H293.75C360.76,194.64,427.47,121.65,493.07,47.68Z" transform="translate(568.2 127.66)"/><path class="cls-1" d="M374.52,267.36H493.07V137.15Q434.21,202.61,374.52,267.36Z" transform="translate(568.2 127.66)"/><path class="cls-1" d="M-401.72-60.14h108.41l-1.15,5.82h-103L-416.06,50.79h96.65l-1.15,5.82H-417.2l-21.51,122.23h-5.45Z" transform="translate(568.2 127.66)"/><path class="cls-1" d="M-301.63,178.84l44.45-251h5.45l-44.45,251Z" transform="translate(568.2 127.66)"/><path class="cls-1" d="M-154.8,141.17c-2.29,13.36-5.73,32.87-6.31,37.67h-5.16c.86-8.56,4-24.31,6.31-35.61-11.76,27.73-28.11,38.35-51.91,38.35-28.1,0-38.72-21.92-38.72-42.12,0-31.84,18.65-51.35,49.62-57.86,16.35-3.42,45.31-4.45,52.19-4.45L-145.62,59c3.73-21.57.29-48.27-35-48.27-27.53,0-37.86,14.72-43.59,39h-5.45c4.88-21.57,14.91-44.85,49.9-44.85,32.7,0,45,22.94,39.29,54.78Zm4.88-58.2c-16.35.34-35,1-50.19,4.11-25.24,5.13-45,20.2-45,52,0,21.57,12.62,36.63,34.13,36.63,27,0,47.61-17.8,56.5-67.1Z" transform="translate(568.2 127.66)"/><path class="cls-1" d="M-15.71,175.07c-8.6,48.62-20.65,77.72-63.38,77.72-36.14,0-46.17-26.71-45.89-47.25h5.17c.57,25,14.33,41.43,41.58,41.43,38.72,0,49-27.73,57.07-72.59l6.6-35.94c-9.47,24-27.53,40.4-51.91,40.4-25.53,0-43.59-20.89-43.59-62.66C-110.06,71-88.55,4.91-39.8,4.91-9.69,4.91-.22,28.19,1.5,47,3.79,34.69,7.81,13.13,9,8.33H14.4C12.68,15.18,9.81,31.61,5.51,54.9Zm-88.9-59.23c0,39,16.34,57.18,38.71,57.18,37.28,0,52.2-38.35,59.65-80.81,8.32-45.87,3.16-81.48-34.7-81.48C-83.1,10.73-104.61,72-104.61,115.84Z" transform="translate(568.2 127.66)"/><path class="cls-1" d="M31.32,178.84l44.45-251h5.45l-44.45,251Z" transform="translate(568.2 127.66)"/><path class="cls-1" d="M203.68,65.85c0,48.28-18.93,115.73-70,115.73-30.4,0-46.46-22.94-46.46-63.35C87.24,72,107.6,4.91,157.79,4.91,185.9,4.91,203.68,25.45,203.68,65.85Zm-111,50.67c0,38.35,14.34,59.23,41.3,59.23,45.88,0,64.24-62.31,64.24-110.24,0-34.24-14.92-54.78-41.3-54.78C111.9,10.73,92.69,72,92.69,116.52Z" transform="translate(568.2 127.66)"/><path class="cls-1" d="M368.29-72.13,331,138.44c-2.3,12-5.17,31.49-6.31,40.4h-4.88c0-4.11,2.87-23.29,6-41.43-10.61,25.33-25.23,44.17-55.35,44.17-27.53,0-42.16-22.6-42.16-63.69,0-43.82,21.51-113,72.28-113,27.24,0,40.15,20.2,41.29,44.85L363.13-72.13Zm-134.51,189c0,38,13.2,58.88,38.43,58.88,29.83,0,51.63-26,62.24-84.9,11.18-61.63-8.32-80.12-35-80.12C255.87,10.73,233.78,73.73,233.78,116.87Z" transform="translate(568.2 127.66)"/><rect class="cls-1" x="438.2" y="352.23" width="2.99" height="2.99"/></svg>